<!DOCTYPE svg PUBLIC "-//W3C//DTD SVG 20010904//EN" "http://www.w3.org/TR/2001/REC-SVG-20010904/DTD/svg10.dtd">
<svg version="1.0" xmlns="http://www.w3.org/2000/svg" width="315px" height="219px" viewBox="0 0 3150 2190" preserveAspectRatio="xMidYMid meet">
<g id="layer101" fill="#0a4207" stroke="none">
<path d="M790 1481 c-344 -253 -626 -466 -628 -474 -4 -19 1253 -941 1273 -933 13 4 15 40 15 226 l0 220 618 2 617 3 0 480 0 480 -617 3 -618 2 -2 222 c-3 189 -5 223 -18 225 -8 2 -296 -204 -640 -456z"/>
</g>
<g id="layer102" fill="#1c8016" stroke="none">
<path d="M790 1481 c-344 -253 -626 -466 -628 -474 -3 -14 1245 -937 1267 -937 16 0 13 11 -9 40 -18 23 -20 42 -20 239 l0 214 23 -21 23 -22 617 0 c339 0 617 4 617 8 0 5 -9 17 -20 27 -19 18 -20 31 -20 451 l0 434 -617 2 -618 3 -3 195 c-3 189 4 251 31 288 35 45 -88 -40 -643 -447z"/>
</g>
<g id="layer103" fill="#179911" stroke="none">
<path d="M790 1481 c-344 -253 -626 -466 -628 -474 -3 -14 1245 -937 1267 -937 6 0 11 2 11 6 0 32 -109 119 -621 495 -316 232 -577 424 -582 428 -7 7 1123 844 1157 857 9 3 19 18 22 33 4 14 11 32 17 39 37 47 -90 -42 -643 -447z"/>
<path d="M1459 1205 c-56 -30 -63 -129 -12 -162 14 -10 56 -24 92 -33 48 -12 67 -21 69 -34 8 -39 -58 -49 -94 -15 -18 17 -30 20 -58 15 -41 -8 -41 -7 -20 -47 20 -39 68 -59 143 -59 49 0 65 4 89 25 30 25 30 26 34 153 3 70 8 135 12 145 7 15 2 17 -37 17 -31 0 -47 -5 -51 -15 -5 -13 -10 -12 -38 5 -38 23 -92 25 -129 5z m128 -70 c11 -8 23 -28 25 -44 4 -28 3 -30 -26 -24 -41 7 -79 25 -83 39 -5 16 24 44 45 44 10 0 27 -7 39 -15z"/>
</g>
<g id="layer104" fill="#97ee95" stroke="none">
<path d="M1459 1205 c-56 -30 -63 -129 -12 -162 14 -10 56 -24 92 -33 48 -12 67 -21 69 -34 8 -39 -58 -49 -94 -15 -18 17 -30 20 -58 15 -42 -8 -42 -10 -17 -52 25 -40 75 -58 152 -52 43 3 65 10 83 27 22 21 24 31 28 149 3 70 8 135 12 145 7 15 2 17 -37 17 -31 0 -47 -5 -51 -15 -5 -13 -10 -12 -38 5 -38 23 -92 25 -129 5z m128 -70 c11 -8 23 -28 25 -44 4 -28 3 -30 -26 -24 -41 7 -79 25 -83 39 -5 16 24 44 45 44 10 0 27 -7 39 -15z"/>
<path d="M1842 1200 c-52 -32 -72 -74 -72 -155 0 -81 20 -123 72 -155 44 -26 122 -27 165 0 30 18 70 76 60 87 -11 11 -87 15 -87 5 0 -19 -31 -42 -56 -42 -13 0 -33 9 -44 20 -29 29 -28 127 1 164 30 39 83 33 100 -10 9 -25 30 -29 77 -16 22 7 22 7 5 42 -39 76 -147 105 -221 60z"/>
<path d="M990 984 l0 -225 145 3 145 3 32 33 c44 44 47 106 6 149 l-27 28 30 17 c51 30 64 99 29 156 -32 51 -70 62 -225 62 l-135 0 0 -226z m258 130 c31 -21 26 -64 -8 -81 -14 -7 -55 -13 -92 -13 l-68 0 0 55 0 55 73 0 c50 0 80 -5 95 -16z m-16 -186 c9 -7 19 -23 22 -35 11 -34 -26 -53 -106 -53 l-68 0 0 50 0 50 68 0 c39 0 75 -5 84 -12z"/>
<path d="M2130 985 l0 -225 45 0 44 0 3 115 3 115 45 -55 c44 -54 46 -55 98 -55 28 0 52 3 52 7 0 4 -23 31 -51 59 l-52 53 57 99 c31 55 56 103 56 107 0 3 -21 5 -47 3 -44 -3 -48 -5 -75 -53 -16 -27 -32 -58 -35 -67 -15 -47 -53 4 -53 70 l0 52 -45 0 -45 0 0 -225z"/>
<path d="M160 1001 c0 -11 1254 -931 1269 -931 6 0 11 2 11 6 0 33 -110 120 -632 504 -473 347 -592 430 -617 430 -17 0 -31 -4 -31 -9z"/>
<path d="M1410 562 c0 -5 8 -16 18 -25 17 -15 75 -17 635 -17 339 0 617 4 617 8 0 5 -8 16 -18 25 -17 15 -75 17 -635 17 -339 0 -617 -4 -617 -8z"/>
</g>
<g id="layer105" fill="#ffffff" stroke="none">
<path d="M1480 1213 c-40 -15 -60 -47 -60 -92 0 -63 24 -86 117 -108 42 -9 77 -23 80 -30 16 -40 -83 -62 -109 -24 -16 22 -78 18 -78 -6 0 -25 55 -71 94 -78 51 -10 119 2 144 25 26 24 31 53 34 198 l3 112 -33 0 c-25 0 -35 -5 -39 -20 -7 -25 -11 -25 -39 1 -22 21 -86 34 -114 22z m120 -83 c11 -11 20 -32 20 -46 0 -25 -2 -26 -36 -19 -59 11 -84 23 -84 43 0 43 64 58 100 22z"/>
<path d="M1852 1201 c-32 -15 -47 -31 -62 -63 -25 -55 -25 -131 0 -186 39 -86 167 -108 237 -40 43 41 43 64 1 71 -27 4 -37 0 -51 -19 -23 -29 -65 -32 -98 -5 -21 17 -24 28 -24 84 0 78 19 107 72 107 27 0 37 -6 51 -29 14 -26 20 -28 52 -24 19 3 36 7 38 8 8 6 -33 72 -54 88 -38 28 -111 31 -162 8z"/>
<path d="M990 985 l0 -227 138 4 c110 2 142 7 163 21 52 35 63 103 26 159 l-24 34 25 18 c58 44 61 124 6 177 l-35 34 -149 4 -150 3 0 -227z m271 124 c14 -14 18 -27 14 -42 -12 -38 -34 -47 -117 -47 l-78 0 0 55 0 55 80 0 c67 0 83 -3 101 -21z m-19 -186 c22 -20 23 -46 2 -67 -11 -12 -36 -16 -90 -16 l-74 0 0 50 0 50 72 0 c52 0 76 -4 90 -17z"/>
<path d="M2130 985 l0 -225 45 0 45 0 0 118 1 117 52 -58 c50 -55 54 -57 100 -57 l49 0 -55 63 -55 62 32 55 c17 30 44 76 59 103 l28 47 -44 0 c-44 0 -45 -1 -75 -57 -50 -92 -48 -90 -71 -69 -16 15 -21 31 -21 73 l0 53 -45 0 -45 0 0 -225z"/>
</g>


</svg>