<?xml version="1.0" encoding="utf-8"?>
<!DOCTYPE svg PUBLIC "-//W3C//DTD SVG 20010904//EN" "http://www.w3.org/TR/2001/REC-SVG-20010904/DTD/svg10.dtd">
<svg version="1.0" xmlns="http://www.w3.org/2000/svg" width="706px" height="104px" viewBox="0 0 706 104" preserveAspectRatio="xMidYMid meet">
 <g fill="#f5f7fb">
  <path d="M112.9 85.4 c-6.1 -1.8 -14.2 -9.9 -16.3 -16.2 -1 -2.7 -1.6 -7.9 -1.6 -12.6 0.1 -12.2 4.3 -20 13.5 -24.9 3.2 -1.7 5.7 -2.1 13 -2.1 10.6 0 14.8 1.7 21.2 8.6 5.4 5.9 6.8 10.4 6.7 21.3 0 7.3 -0.4 9.9 -2.3 13.8 -5.6 11.4 -19.9 16.5 -34.2 12.1z m13.1 -15.4 c3.1 -1.7 5.3 -9.2 4.7 -16 -0.6 -7.4 -1.8 -9 -6.6 -9 -7.6 0 -10.5 4.9 -9.9 16.5 0.2 5.3 0.8 7.9 1.8 8.5 2 1.3 7.7 1.3 10 0z"/>
  <path d="M257.2 85.5 c-5.4 -2.4 -11.9 -9.8 -13.7 -15.7 -2 -6.8 -2 -20.1 0.1 -26.2 4.1 -12 16.2 -17.6 27.2 -12.6 l4.2 1.9 0 -11.4 c0 -13.1 0.2 -13.5 8.7 -13.5 4.1 0 5.4 0.5 7.6 2.8 l2.7 2.8 0 35 c0 25.9 -0.3 35.3 -1.2 36.2 -0.7 0.7 -3.3 1.2 -5.9 1.2 -3.7 0 -5.1 -0.5 -6.2 -2 -1.4 -2.1 -1.4 -2.1 -6.2 0.5 -5.5 2.9 -12.1 3.3 -17.3 1z m11.1 -15.6 c5.9 -3 6.7 -4.7 6.7 -13.5 0 -7.2 -0.3 -8.5 -1.9 -9.4 -3 -1.6 -7.6 -1.2 -9.4 0.8 -2.4 2.7 -4 10 -3.2 15.1 1.2 7.9 3 9.5 7.8 7z"/>
  <path d="M401.9 84.7 c-2.4 -1.3 -5.9 -4.3 -7.6 -6.6 -2.8 -3.6 -3.3 -5.1 -3.3 -9.9 0 -11 6.2 -16.1 20.7 -17 l8.3 -0.5 0 -2.8 c0 -4.8 -5.4 -4.8 -17.8 0.2 -3.1 1.3 -3.3 1.2 -6.2 -1.9 -8.3 -9.1 0.3 -16.7 18.6 -16.7 9.7 0.1 11.7 0.8 17.7 6.4 5.6 5.1 6.1 7 6.5 27.2 0.5 22.1 0.3 22.9 -6.5 22.9 -2.7 0 -5.3 -0.6 -6.3 -1.5 -1.4 -1.3 -2.1 -1.3 -5.5 0.5 -5.4 2.8 -13 2.6 -18.6 -0.3z m15.5 -14.8 c5.2 -4.1 2.6 -7.4 -4.1 -4.8 -3.1 1.2 -4.3 2.6 -4.3 5.2 0 2.4 5 2.2 8.4 -0.4z"/>
  <path d="M461.6 86 c-3.7 -1.2 -9.4 -6.6 -11.2 -10.7 -1 -2.2 -1.4 -7.4 -1.4 -16.3 0 -11.1 -0.2 -13 -1.5 -13 -2.7 0 -6.4 -5.2 -6.5 -8.8 0 -4.9 1.6 -7.2 5 -7.2 2.8 0 2.9 -0.1 3.2 -5.7 l0.3 -5.8 6.1 -0.3 c5.3 -0.2 6.4 0 8.7 2.2 2 1.8 2.7 3.5 2.7 6.1 0 3.3 0.2 3.5 3.3 3.5 2.4 0 4.1 0.8 6.1 2.9 2.3 2.4 2.7 3.5 2.4 7.7 l-0.3 4.9 -5.7 0.3 -5.8 0.3 0 12.1 0 12 3.6 -0.4 c5.3 -0.6 8.4 2.5 8.4 8.3 0 2.4 -0.4 5 -0.8 5.7 -1.8 2.7 -10.7 3.9 -16.6 2.2z"/>
  <path d="M491.9 84.7 c-2.4 -1.3 -5.9 -4.3 -7.6 -6.6 -2.8 -3.6 -3.3 -5.1 -3.3 -9.9 0 -11 6.2 -16.1 20.7 -17 l8.3 -0.5 0 -2.8 c0 -4.8 -5.4 -4.8 -17.8 0.2 -3.1 1.3 -3.3 1.2 -6.2 -1.9 -5.3 -5.9 -3.5 -11.7 4.7 -14.9 6.3 -2.4 21.4 -2.4 25.8 -0.1 4 2.2 9.1 7.6 10.5 11.2 1.6 4.3 2.2 18.7 1.3 31.6 l-0.8 11.5 -4.9 0.3 c-3.3 0.2 -5.3 -0.2 -6.5 -1.2 -1.6 -1.4 -2.1 -1.4 -5.6 0.4 -5.4 2.8 -13 2.6 -18.6 -0.3z m15.9 -14.6 c2.8 -2.5 3 -6.1 0.2 -6.1 -1.1 0 -3.6 0.7 -5.5 1.4 -2.7 1.2 -3.5 2.1 -3.5 4 0 2.3 0.4 2.6 3.3 2.6 1.7 -0.1 4.2 -0.9 5.5 -1.9z"/>
  <path d="M634.1 85.1 c-2.9 -1 -6.7 -3.3 -8.5 -5 -2.6 -2.7 -3.1 -3.9 -3.1 -8.1 0 -7.2 1.3 -7.9 8.2 -4.7 7.8 3.6 12.2 4.2 16.6 2.3 3.7 -1.5 5.5 -5 4.3 -8.1 -0.3 -0.8 -4 -3.2 -8.2 -5.2 -13.7 -6.5 -19.6 -13.8 -19.6 -24.3 0 -6.7 1.7 -10.5 6.6 -14.8 4.3 -3.7 9.1 -5.2 17.2 -5.2 12 0 20.4 5.3 20.4 13 0 7.5 -1.1 8.2 -8.1 5 -8.8 -4 -17.6 -1.8 -16.7 4.2 0.2 1.8 2.2 3.2 8.8 6.5 15.4 7.6 21.6 16.7 19.2 28.1 -2.3 11.1 -10.6 17.3 -24 17.9 -5.8 0.3 -9.1 -0.1 -13.1 -1.6z"/>
  <path d="M7.1 83.3 l-3.1 -2.7 0 -31.8 c0 -38.2 -0.8 -35.8 12.5 -35.8 8.3 0 8.6 0.1 12.4 3.5 3.4 3.1 4.6 5.7 10.2 21 3.5 9.6 6.6 17.5 6.9 17.5 0.3 0 3.7 -8.4 7.5 -18.7 3.9 -10.4 8 -19.8 9.2 -21 1.9 -2 3.2 -2.3 10.5 -2.3 7.9 0 8.5 0.2 11.6 3.1 l3.2 3 0 32.8 c0 36.9 0.7 34.1 -7.9 34.1 -3.9 0 -5.2 -0.5 -7.2 -2.7 -2.3 -2.7 -2.4 -3.5 -2.9 -21 l-0.5 -18.3 -6.9 19.6 c-3.8 10.8 -7.6 20.2 -8.4 21 -0.8 0.9 -3.5 1.4 -6.7 1.4 -8.4 0 -10 -2.1 -17.6 -24.7 l-6.4 -18.8 -0.5 20.8 c-0.6 23.3 -0.3 22.7 -8.1 22.7 -3.7 0 -5.4 -0.6 -7.8 -2.7z"/>
  <path d="M157.5 83.6 l-2.6 -2.4 0 -24.8 c0 -19.1 0.3 -24.9 1.3 -25.6 2.6 -1.6 9.4 -0.9 11.3 1.2 l1.8 2 2.3 -2.1 c1.3 -1.3 4.1 -2.3 6.8 -2.6 4.1 -0.5 4.7 -0.2 8 3 3.8 3.9 4.6 7.9 2.6 13.1 -0.9 2.4 -1.3 2.5 -5.4 2 -4.2 -0.6 -4.8 -0.4 -7.6 2.6 l-3 3.2 0 15.2 c0 10.5 -0.4 15.6 -1.2 16.4 -0.7 0.7 -3.6 1.2 -6.4 1.2 -4.2 0 -5.8 -0.5 -7.9 -2.4z"/>
  <path d="M195.1 83.3 l-3.1 -2.7 0 -24.3 c0 -27.5 -0.4 -26.3 8.3 -26.3 3.5 0 5.2 0.6 7.6 2.7 l3.1 2.7 0 24.1 c0 17.4 -0.3 24.4 -1.2 25.3 -0.7 0.7 -3.5 1.2 -6.4 1.2 -4.2 0 -5.8 -0.5 -8.3 -2.7z"/>
  <path d="M221.1 83.3 l-3.1 -2.7 0 -35.1 c0 -26 0.3 -35.4 1.2 -36.3 0.7 -0.7 3.7 -1.2 6.8 -1.2 4.9 0 6 0.4 8.3 2.8 l2.7 2.8 0 35.2 c0 39.8 0.6 37.2 -8.3 37.2 -3.5 0 -5.2 -0.6 -7.6 -2.7z"/>
  <path d="M330.5 82.7 l-3.5 -3.5 0 -31.4 c0 -30 0.1 -31.6 2 -33.3 1.7 -1.5 3.6 -1.7 17.7 -1.3 14.5 0.4 16.3 0.6 21.5 3 6.5 3 13.7 9.7 16.7 15.7 7.3 14.2 3.9 37.4 -6.9 46.2 -6.5 5.4 -12.9 7.1 -29.2 7.7 l-14.7 0.5 -3.6 -3.6z m28.2 -14.8 c4 -1.3 7.9 -5.8 9.3 -10.7 1.8 -6.6 1.2 -16.3 -1.2 -21.2 -2.7 -5.3 -6.1 -6.9 -15 -6.9 l-5.8 -0.1 0 18.9 c0 10.4 0.3 19.7 0.6 20.6 0.7 1.7 5.2 1.5 12.1 -0.6z"/>
  <path d="M558.2 83.7 c-1.2 -1.3 -2.2 -3.3 -2.2 -4.6 0 -2.5 20.7 -62.9 22.3 -64.8 0.6 -0.9 3.8 -1.3 9.1 -1.3 11.9 0 11.4 -0.8 24.6 37 6.1 17.3 11 32.1 11 33.1 0 2.2 -2 2.9 -8.9 2.9 -5 0 -6.1 -0.4 -8.3 -2.7 -1.4 -1.6 -3.3 -5.2 -4.3 -8 l-1.7 -5.3 -10.7 0 -10.7 0 -1.8 5.8 c-2.9 9.4 -3.7 10.2 -10.4 10.2 -4.8 0 -6.2 -0.4 -8 -2.3z m34.4 -30.2 c1.4 -1.3 1.3 -2.3 -0.7 -8.5 -1.3 -3.8 -2.6 -7 -2.9 -7 -0.3 0 -1.7 3.3 -2.9 7.3 -1.3 3.9 -2.6 7.8 -2.8 8.5 -0.7 1.8 7.5 1.6 9.3 -0.3z"/>
  <path d="M198.5 28.1 c-4.4 -1.9 -7 -6 -6.9 -10.8 0.1 -5.8 2 -7.3 9 -7.3 4.7 0 5.5 0.3 8.3 3.5 5.7 6.5 3.4 14.2 -4.4 15.1 -2.2 0.2 -4.9 0 -6 -0.5z"/>
 </g>
 <g fill="#ffffce">
  <path d="M402.3 85 c-2.3 -1.2 -4.7 -2.8 -5.3 -3.5 -0.7 -0.8 0.4 -0.6 2.7 0.6 5 2.5 12.7 2.5 17.8 -0.1 3.4 -1.7 4.1 -1.8 5.3 -0.6 1.2 1.2 1 1.7 -1.3 3.2 -4.3 2.8 -14 3 -19.2 0.4z"/>
  <path d="M492.3 85 c-2.3 -1.2 -4.7 -2.8 -5.3 -3.5 -0.6 -0.8 0.5 -0.5 2.7 0.7 4.6 2.4 14.8 2 18.9 -0.7 2.3 -1.5 2.8 -1.5 4.1 -0.2 1.4 1.3 1.2 1.7 -1.2 3.3 -4.3 2.8 -14 3 -19.2 0.4z"/>
 </g>
 <g fill="#ffff6f">
  <path d="M344.8 69.3 c-1.6 -0.4 -1.8 -2.3 -1.8 -21.9 l0 -21.4 5.3 0 c6.2 0 12 1.5 13.7 3.5 1 1.2 0.7 1.3 -2.2 0.5 -1.8 -0.6 -5.7 -1 -8.6 -1 l-5.3 0 0.3 20.5 c0.2 11.3 0.3 20.4 0.3 20.4 0 -0.1 -0.8 -0.3 -1.7 -0.6z"/>
  <path d="M592 54 c0 -0.5 0.7 -1 1.5 -1 0.8 0 1.5 0.5 1.5 1 0 0.6 -0.7 1 -1.5 1 -0.8 0 -1.5 -0.4 -1.5 -1z"/>
 </g>
 <g fill="#b3c6e7">
  <path d="M426 84.5 c-1.1 -1.3 -0.6 -1.5 3.3 -1.5 3.6 0 4.9 -0.4 5.7 -2 1.5 -2.9 0.8 -38.8 -0.9 -41.9 -0.8 -1.4 -0.9 -2.1 -0.2 -1.7 0.6 0.4 1.9 2.2 2.8 3.9 1.4 2.6 1.8 6.7 2.1 21.8 0.5 22.2 0.3 22.9 -6.7 22.9 -3.1 0 -5.3 -0.5 -6.1 -1.5z"/>
  <path d="M516 84.5 c-1.1 -1.3 -0.7 -1.5 3.3 -1.5 3.6 0 4.9 -0.4 5.7 -2 1.4 -2.6 0.6 -37.5 -0.9 -41.3 -0.8 -2 -0.8 -2.6 0 -2.1 3.8 2.3 5.5 17.2 4.2 36.4 l-0.8 11.5 -5.1 0.3 c-3.6 0.2 -5.4 -0.1 -6.4 -1.3z"/>
  <path d="M642.5 55.9 c-4.4 -2.2 -8.9 -4.9 -10 -6.1 l-2 -2.1 3 2 c1.7 1.1 5.8 3.3 9.2 4.8 3.5 1.5 6.8 3.4 7.4 4.1 1.5 1.9 1.5 1.9 -7.6 -2.7z"/>
 </g>
 <g fill="#7b9cd5">
  <path d="M74 84.5 c-1.1 -1.3 -0.6 -1.5 3.3 -1.5 8.3 0 7.7 2.7 7.7 -33.6 0 -29.4 0.5 -35.8 2.4 -30.8 0.3 0.9 0.6 16.1 0.6 33.9 0 36.3 0.7 33.5 -8 33.5 -3 0 -5.2 -0.5 -6 -1.5z"/>
  <path d="M607 84.5 c-1.1 -1.3 -0.5 -1.5 4.8 -1.5 9.6 0 9.7 -0.2 2.5 -20.9 -3.4 -9.7 -8.4 -24.1 -11.2 -32 -2.8 -8 -4.4 -13.8 -3.6 -13 1.6 1.6 23.5 63.1 23.5 66 0 2.2 -2 2.9 -9 2.9 -3.9 0 -6.2 -0.5 -7 -1.5z"/>
 </g>
 <g fill="#ee6c6c">
  <path d="M157.4 79.7 c-0.2 -0.7 -0.3 -11.6 -0.2 -24.2 l0.3 -23 4 0 c3.9 0 4 0.1 4.3 3.8 0.2 2 0.5 3.7 0.8 3.7 0.2 0 2 -1.8 4 -3.9 3.6 -4.1 7.8 -5.7 11.4 -4.6 1.7 0.5 2 1.5 2 5.8 l0 5.2 -4.5 -0.3 c-4.2 -0.4 -4.9 -0.1 -8 3.3 l-3.5 3.6 0 15.4 c0 16.9 0.1 16.5 -6.6 16.5 -1.9 0 -3.7 -0.6 -4 -1.3z"/>
 </g>
 <g fill="#4472c4">
  <path d="M112.9 85.4 c-2.6 -0.7 -5.2 -2 -5.8 -2.8 -1.1 -1.2 -0.6 -1.2 3.5 0 9.2 2.8 20.1 1.1 27 -4.1 1.9 -1.4 4.6 -5 6.1 -7.8 2.4 -4.6 2.7 -6.3 2.7 -14.7 0 -6.8 -0.5 -10.6 -1.7 -13.4 -1.3 -3 -1.4 -3.6 -0.3 -2.6 5.4 4.4 7 24.4 2.7 33.3 -5.6 11.4 -19.9 16.5 -34.2 12.1z"/>
  <path d="M257.5 85.6 c-1.6 -0.8 -3.9 -2.1 -5 -3 -1.8 -1.5 -1.7 -1.5 2 0 5.6 2.3 13.3 1.5 18.4 -1.9 2.3 -1.5 4.1 -2.3 4.1 -1.8 0 0.5 0.3 1.6 0.6 2.4 0.8 2.1 -7.2 5.7 -12.7 5.7 -2.4 -0.1 -5.7 -0.7 -7.4 -1.4z"/>
  <path d="M403.5 85.6 c-1.6 -0.8 -3.9 -2.1 -5 -3 -1.8 -1.5 -1.7 -1.5 1.7 -0.1 5.2 2.1 12.6 1.9 17.3 -0.5 3.4 -1.7 4.1 -1.8 5.3 -0.6 3.8 3.8 -12.6 7.4 -19.3 4.2z"/>
  <path d="M461.4 85.9 c-1.7 -0.5 -3.7 -1.5 -4.3 -2.3 -1 -1.2 -0.6 -1.3 2.8 -0.4 4.9 1.2 12.5 0.3 14.6 -1.8 0.8 -0.9 1.5 -3.3 1.5 -5.6 0 -2.7 0.4 -3.8 1.3 -3.6 1.3 0.5 2.2 6.9 1.3 10.4 -1 3.7 -9.8 5.5 -17.2 3.3z"/>
  <path d="M493.5 85.6 c-1.6 -0.8 -3.9 -2.1 -5 -3 -1.8 -1.4 -1.6 -1.4 2 0 4.9 2 14.3 1.4 18.2 -1.1 2.2 -1.5 2.7 -1.5 4 -0.2 1.4 1.3 1.2 1.7 -1.2 3.3 -3.6 2.4 -13.9 2.9 -18 1z"/>
  <path d="M634.2 85.1 c-3 -1 -6.1 -2.5 -6.9 -3.4 -1.2 -1.2 -0.4 -1.1 3.9 0.4 11.2 3.9 24.1 1.7 31.2 -5.4 6.2 -6.3 8.2 -14.8 5.1 -22.5 l-1.5 -3.7 2 2.3 c5.3 6.3 4.9 18.1 -0.8 25.1 -6.6 8.1 -21.5 11.4 -33 7.2z"/>
  <path d="M8.4 84.5 c-1.7 -1.3 -1.5 -1.4 3.3 -1.5 8.4 0 8.3 0.4 8.4 -26.3 0 -20.6 0.2 -22.8 1.4 -19.7 1 2.5 1.4 9.5 1.4 24.7 0.1 18 -0.1 21.4 -1.5 22.7 -2 2.1 -10.3 2.1 -13 0.1z"/>
  <path d="M41.3 85.3 c-2.9 -1.1 -1 -2.3 3.6 -2.3 2.9 0 5.5 -0.6 6.3 -1.4 0.8 -0.7 5.2 -12.1 9.9 -25.2 8 -22.7 8.4 -23.6 8.7 -18.9 0.3 4 -1 8.6 -6.9 25.3 -4 11.2 -7.9 21.1 -8.7 21.8 -1.3 1.4 -10.2 1.8 -12.9 0.7z"/>
  <path d="M74 84.5 c-1.1 -1.3 -0.6 -1.5 3.6 -1.5 8.4 0 7.9 2.1 7.9 -34 0 -17.6 0.3 -32 0.6 -32 1.6 0 1.9 5.1 1.9 35.5 0 36.3 0.7 33.5 -8 33.5 -3 0 -5.2 -0.5 -6 -1.5z"/>
  <path d="M158.4 84.5 c-1.7 -1.3 -1.4 -1.4 3.7 -1.5 3 0 6 -0.5 6.7 -1.2 0.8 -0.8 1.2 -5.9 1.2 -16.4 l0 -15.2 3 -3.2 c2.8 -3 3.4 -3.2 7.6 -2.6 4.1 0.5 4.5 0.4 5.4 -2 0.6 -1.4 1 -4.2 1 -6.2 0.1 -3.5 0.2 -3.6 1.5 -1.8 1.7 2.3 1.9 7.3 0.5 11 -0.9 2.4 -1.3 2.5 -5.4 2 -4.2 -0.6 -4.8 -0.4 -7.6 2.6 l-3 3.2 0 15.2 c0 10.5 -0.4 15.6 -1.2 16.4 -1.7 1.7 -11 1.5 -13.4 -0.3z"/>
  <path d="M196.4 84.5 c-1.8 -1.3 -1.5 -1.4 2.9 -1.5 9.1 0 8.7 1.2 8.7 -25.6 0 -18.4 0.3 -23.5 1.3 -23.2 1.7 0.6 2.3 48.4 0.6 50.4 -1.6 1.9 -11 1.8 -13.5 -0.1z"/>
  <path d="M222.4 84.5 c-1.7 -1.3 -1.4 -1.4 3.7 -1.5 3 0 6 -0.5 6.7 -1.2 0.9 -0.9 1.2 -10.3 1.2 -36.1 0 -31 0.2 -34.8 1.5 -33.7 1.3 1.1 1.5 6.4 1.5 36.6 0 33.9 -0.1 35.4 -1.9 36.4 -2.9 1.5 -10.4 1.2 -12.7 -0.5z"/>
  <path d="M281 84.5 c-1.1 -1.3 -0.6 -1.5 3.2 -1.5 2.4 0 4.9 -0.5 5.6 -1.2 0.9 -0.9 1.2 -10.3 1.2 -36.1 0 -31 0.2 -34.8 1.5 -33.7 1.3 1.1 1.5 6.4 1.5 36.4 0 26 -0.3 35.5 -1.2 36.4 -1.7 1.7 -10.3 1.5 -11.8 -0.3z"/>
  <path d="M332.6 84.7 c-1.7 -1.3 -0.3 -1.5 13 -1.9 16.5 -0.6 22.9 -2.3 29.4 -7.7 8.2 -6.7 12.5 -21.7 10.2 -35.2 -0.7 -3.9 -1.9 -8.4 -2.8 -10.1 -0.9 -1.6 -1.1 -2.7 -0.5 -2.3 2.2 1.3 5.1 8.5 6.3 15.4 2.3 13.5 -2 28.5 -10.2 35.2 -6.5 5.4 -12.9 7.1 -29 7.6 -11.7 0.4 -14.9 0.2 -16.4 -1z"/>
  <path d="M426 84.5 c-1.1 -1.3 -0.6 -1.5 3.3 -1.5 3.7 0 4.9 -0.4 5.8 -2.1 1.6 -3.1 0.8 -38.6 -1 -41.8 -0.8 -1.4 -0.9 -2.1 -0.2 -1.7 0.6 0.4 1.9 2.2 2.8 3.9 1.4 2.6 1.8 6.7 2.1 21.8 0.5 22.2 0.3 22.9 -6.7 22.9 -3.1 0 -5.3 -0.5 -6.1 -1.5z"/>
  <path d="M516 84.5 c-1.1 -1.3 -0.7 -1.5 3.3 -1.5 3.7 0 4.9 -0.4 5.8 -2.1 1.5 -2.8 0.7 -37.2 -0.9 -41.2 -0.8 -2 -0.9 -2.6 -0.1 -2.1 3.8 2.3 5.5 17.2 4.2 36.4 l-0.8 11.5 -5.1 0.3 c-3.6 0.2 -5.4 -0.1 -6.4 -1.3z"/>
  <path d="M559 84.5 c-1.1 -1.3 -0.5 -1.5 4.4 -1.5 6.4 0 7.3 -0.8 10.2 -10.2 l1.8 -5.8 11.7 0 c9.5 0 11.8 0.3 12.3 1.5 0.5 1.3 -1.1 1.5 -10.2 1.5 l-10.8 0 -1.8 5.8 c-2.9 9.4 -3.7 10.2 -10.5 10.2 -4 0 -6.3 -0.5 -7.1 -1.5z"/>
  <path d="M607 84.5 c-1 -1.2 -0.2 -1.4 5.1 -1.7 4.4 -0.2 6.5 -0.8 7.2 -1.9 0.8 -1.2 -1.6 -9.1 -9.6 -32.1 -5.9 -16.8 -10.7 -30.9 -10.7 -31.4 0 -0.4 0.5 -0.3 1 0.2 1.3 1.3 23 63.1 23 65.5 0 2.2 -2 2.9 -9 2.9 -3.8 0 -6.2 -0.5 -7 -1.5z"/>
  <path d="M112.9 67.4 c-1.9 -2.3 -2.5 -15.6 -0.9 -19.5 0.7 -1.6 2.2 -3.6 3.4 -4.4 2.6 -1.9 8.7 -1.9 11.2 0 1.8 1.3 1.6 1.4 -2.1 1.5 -8 0 -10.9 4.7 -10.3 16.5 0.2 4.1 0.3 7.5 0.2 7.5 -0.1 0 -0.8 -0.7 -1.5 -1.6z"/>
  <path d="M259.6 66.8 c-3.4 -5.3 -2.8 -17.7 1.1 -22 2.1 -2.3 7.5 -2.3 10.3 0 l2.3 1.8 -3.7 -0.4 c-2.6 -0.3 -4.3 0.1 -5.6 1.3 -2.8 2.5 -4.5 11.1 -3.2 16.8 1.1 5.3 0.9 5.7 -1.2 2.5z"/>
  <path d="M407.2 70.8 c-0.6 -0.6 -1.2 -2.5 -1.2 -4.1 0 -2.3 0.7 -3.1 3.5 -4.3 4.6 -1.9 10.5 -1.9 10.5 0.1 0 0.8 -0.8 1.5 -1.9 1.5 -4.3 0 -8.1 2.2 -8.9 5.1 -0.6 2.4 -1 2.7 -2 1.7z"/>
  <path d="M497.3 70.9 c-0.7 -0.7 -1.3 -2.6 -1.3 -4.2 0 -2.3 0.7 -3.1 3.5 -4.3 4.6 -1.9 10.5 -1.9 10.5 0.1 0 0.8 -0.9 1.5 -2 1.5 -4.3 0 -8.8 2.7 -9.2 5.5 -0.2 2.1 -0.5 2.4 -1.5 1.4z"/>
  <path d="M343 47.5 l0 -21.5 5.3 0 c6.2 0 12 1.5 13.7 3.5 1 1.2 0.7 1.3 -2.2 0.5 -1.8 -0.6 -5.7 -1 -8.5 -1 l-5.3 0 0 20 c0 17.1 -0.2 20 -1.5 20 -1.3 0 -1.5 -3.1 -1.5 -21.5z"/>
  <path d="M582.8 43.1 c2 -6.1 3.9 -11.1 4.3 -11.1 2 0 1.6 5.5 -1 13.1 -2.2 6.6 -3.2 8.5 -4.9 8.7 -2 0.3 -1.9 -0.1 1.6 -10.7z"/>
  <path d="M464.6 67.8 c-0.3 -1.3 -0.6 -7.3 -0.6 -13.5 l0 -11.2 5.8 -0.3 5.7 -0.3 0.5 -4.9 c0.4 -4.2 0.7 -4.7 1.8 -3.3 0.8 0.9 1.2 3.4 1 6.4 l-0.3 4.8 -5.7 0.3 -5.8 0.3 0 11.9 c0 11.2 -0.9 15.1 -2.4 9.8z"/>
  <path d="M642.5 55.9 c-4.4 -2.1 -8.6 -4.6 -9.5 -5.4 -0.8 -0.8 2.7 0.5 7.7 3 5 2.4 9.4 4.9 9.8 5.5 0.8 1.4 1.1 1.4 -8 -3.1z"/>
  <path d="M39 42.3 c-2.9 -8.2 -6.2 -17 -7.2 -19.8 -1.5 -3.9 -1.6 -4.7 -0.4 -3.5 1.1 1.1 14.6 35.9 14.6 37.7 0 0.2 -0.4 0.3 -0.8 0.3 -0.5 0 -3.3 -6.6 -6.2 -14.7z"/>
  <path d="M397.7 48.4 c-1.4 -1.4 -0.6 -2.2 4.6 -4.4 6.5 -2.9 13.9 -3.2 16.4 -0.7 1.7 1.7 1.6 1.7 -1.3 1.1 -1.9 -0.3 -5.1 0.2 -8.9 1.6 -8 2.9 -9.9 3.3 -10.8 2.4z"/>
  <path d="M487.7 48.4 c-1.4 -1.4 -0.6 -2.2 4.6 -4.4 6.5 -2.9 13.9 -3.2 16.4 -0.7 1.7 1.7 1.6 1.7 -1.3 1.1 -1.9 -0.3 -5.1 0.2 -8.9 1.6 -8 2.9 -9.9 3.3 -10.8 2.4z"/>
  <path d="M444.6 44.4 c-0.4 -1.1 0 -1.5 1.6 -1.2 1.2 0.2 2.3 0.9 2.6 1.6 0.6 1.8 -3.5 1.5 -4.2 -0.4z"/>
  <path d="M641.3 34.9 c-1.9 -1.9 -1.6 -6.3 0.5 -8.2 2.5 -2.3 9.6 -2.1 15.1 0.3 7.1 3.2 8.1 2.6 8.1 -5.3 0.1 -3.9 0.2 -4.1 1.5 -2.3 1.5 2 2 8.1 0.9 11 -0.8 2.1 -2.3 2 -7.5 -0.4 -8.6 -3.9 -16.2 -2.2 -17.1 3.8 -0.2 1.9 -0.5 2.1 -1.5 1.1z"/>
  <path d="M464 25.5 c0 -3.5 0.3 -4.3 1.5 -3.9 1 0.4 1.5 2 1.5 4.5 0 2.8 -0.4 3.9 -1.5 3.9 -1.1 0 -1.5 -1.2 -1.5 -4.5z"/>
  <path d="M198.4 28.1 c-3.9 -1.7 -3.3 -2.6 1.8 -2.6 6.4 0 9.2 -2.9 8.6 -8.8 -0.4 -3.9 -0.4 -3.9 1.4 -1.7 2.3 2.8 2.3 8.2 0 11 -1.9 2.4 -8.4 3.5 -11.8 2.1z"/>
 </g>
 <g fill="#de0101">
  <path d="M110.9 80.5 c-5.6 -1.8 -11.3 -7.7 -12.8 -13.2 -1.4 -4.9 -1.4 -14.3 0 -19.7 1.4 -5.5 5.9 -11 11.2 -13.8 3.3 -1.7 5.9 -2.2 12.2 -2.2 14.7 0 21.2 5.8 23 20.5 0.9 6.9 -1.5 16.9 -5 21.5 -5.2 6.8 -18.7 10.1 -28.6 6.9z m16 -9 c7.2 -3.7 8.5 -21.7 2.1 -28.5 -2.4 -2.6 -3.5 -3 -8 -3 -4.3 0 -5.6 0.5 -8 2.8 -6.6 6.6 -6.5 22.1 0.2 27.7 3.4 2.9 9.3 3.3 13.7 1z"/>
  <path d="M402.5 81 c-6.1 -2 -9.5 -6.6 -9.5 -12.8 0 -9.8 6 -14.3 20.3 -15 l8.7 -0.4 0 -4.8 c0 -8.7 -7.5 -11.3 -19 -6.6 -6.5 2.6 -7.9 2.3 -8 -1.2 0 -5.2 7.7 -8.7 19.5 -8.7 9.4 0 14 2.1 16.7 7.5 1.5 3 1.8 6.4 1.8 22.8 l0 19.2 -4 0 c-3.5 0 -4 -0.3 -4 -2.3 0 -3.7 -0.9 -3.8 -5.3 -0.6 -4.7 3.3 -12.1 4.5 -17.2 2.9z m12.2 -7.1 c5.3 -2 7.3 -4.8 7.3 -10.1 l0 -4.8 -4.9 0 c-5.9 0 -10.8 1.6 -12.1 4 -2.4 4.5 -0.6 9.6 4 11.3 2.2 0.8 2.6 0.8 5.7 -0.4z"/>
  <path d="M7.3 80.4 c-1.6 -0.7 -1.9 -58.8 -0.3 -62.8 0.9 -2.5 1.3 -2.6 8.9 -2.6 6 0 8.4 0.4 10 1.7 1.8 1.6 4.7 8.8 17.3 43.6 1.4 3.8 2.4 3.4 4.1 -1.5 7.3 -20.2 16 -41.5 17.4 -42.6 2.4 -1.7 15.7 -1.6 17.2 0.2 0.8 0.9 1.1 10.4 0.9 32.7 l-0.3 31.4 -5 0 -5 0 -0.3 -28.2 c-0.1 -15.6 -0.6 -28.3 -1.1 -28.3 -0.4 0 -5.2 12.3 -10.6 27.3 -5.3 14.9 -10.2 27.8 -10.7 28.5 -0.6 0.6 -3 1.2 -5.4 1.2 -3.4 0 -4.6 -0.5 -5.7 -2.2 -0.8 -1.3 -5.4 -14.1 -10.3 -28.5 -5.2 -15.3 -9.4 -26.3 -10.1 -26.3 -1 0 -1.3 6.6 -1.5 28.3 l-0.3 28.2 -4 0.2 c-2.2 0.1 -4.6 0 -5.2 -0.3z"/>
  <path d="M330.7 79.6 c-1.5 -1.6 -1.7 -4.7 -1.7 -31.5 0 -23 0.3 -30.1 1.3 -31.5 1.2 -1.7 2.8 -1.8 16.3 -1.4 12.8 0.3 15.6 0.7 19.9 2.6 9.6 4.4 14.7 11.3 16.4 22.3 2.1 13.6 -2.3 28.3 -10.2 34 -5.9 4.3 -12.6 5.9 -27.2 6.6 -11.5 0.5 -13.3 0.4 -14.8 -1.1z m25.2 -8.7 c10.2 -2.3 15.1 -10 15.1 -23.4 -0.1 -16.3 -7.2 -23.5 -23.1 -23.5 l-6.9 0 0 23.3 c0 12.9 0.3 23.7 0.7 24 1 1 9.2 0.8 14.2 -0.4z"/>
  <path d="M558 79.3 c0 -1 4.9 -15.7 10.9 -32.8 l10.7 -31 7.4 -0.3 c4 -0.2 7.7 0.1 8.1 0.5 1.7 1.7 22.9 63.7 22 64.6 -0.4 0.4 -3.2 0.7 -6.1 0.5 l-5.3 -0.3 -2.6 -7.5 -2.6 -7.5 -13.4 0 -13.4 0 -2.6 7.5 -2.6 7.5 -5.2 0.3 c-4.6 0.3 -5.3 0.1 -5.3 -1.5z m39 -24 c0 -2.8 -9.1 -29.3 -10 -29.3 -1 0 -11 29.7 -10.2 30.4 0.3 0.3 5 0.6 10.4 0.6 8.7 0 9.8 -0.2 9.8 -1.7z"/>
 </g>
 <g fill="#c90202">
  <path d="M111.5 80.5 c-6.1 -1.6 -11.8 -7.4 -13.5 -13.6 -1.3 -4.7 -0.8 -17.7 0.9 -22 1.5 -4 6 -8.8 10.5 -11.1 3.2 -1.7 5.8 -2.2 12.1 -2.2 15.5 0 22.6 7.1 22.9 22.9 0.2 14.4 -5 22.9 -16.1 26.1 -4 1.2 -5.8 1.3 -6.1 0.5 -0.5 -1.4 -4.2 -1.5 -4.2 -0.1 0 1.2 -0.2 1.2 -6.5 -0.5z m15.4 -9 c5 -2.5 7.4 -12.7 5.5 -22.4 -1 -4.6 -5.5 -9.1 -9.3 -9.1 -1.7 0 -3.1 -0.4 -3.1 -1 0 -4 -9.4 5.1 -10.9 10.6 -2.2 8.1 -0.5 17.1 4.1 20.9 3.4 2.9 9.3 3.3 13.7 1z"/>
  <path d="M402.5 80.9 c-6 -1.9 -9.5 -6.5 -9.5 -12.7 0 -9.8 6 -14.3 20.3 -15 l8.7 -0.4 0 -4.8 c0 -8.7 -7.5 -11.3 -19 -6.6 -6.5 2.6 -7.9 2.3 -8 -1.2 0 -5.2 7.7 -8.7 19.5 -8.7 9.4 0 14 2.1 16.7 7.5 1.5 3 1.8 6.4 1.8 22.8 l0 19.2 -4 0 c-3.5 0 -4 -0.3 -4 -2.3 0 -3.6 -0.8 -3.8 -5.3 -0.7 -4.6 3.1 -9.7 4.7 -9.7 3 0 -0.5 -0.7 -1 -1.5 -1 -0.8 0 -1.5 0.5 -1.5 1 0 1.2 -0.4 1.1 -4.5 -0.1z m12.2 -7 c5.3 -2 7.3 -4.8 7.3 -10.1 l0 -4.8 -4.9 0 c-5.9 0 -10.8 1.6 -12.1 4 -2.4 4.5 -0.6 9.6 4 11.3 2.2 0.8 2.6 0.8 5.7 -0.4z"/>
  <path d="M157.4 79.7 c-0.2 -0.7 -0.3 -11.6 -0.2 -24.2 l0.3 -23 4 0 c3.9 0 4 0.1 4.3 3.8 0.2 2 0.5 3.7 0.8 3.7 0.2 0 2 -1.8 4 -3.9 3.6 -4.1 7.8 -5.7 11.4 -4.6 1.7 0.5 2 1.5 2 5.8 l0 5.2 -4.5 -0.3 c-4.1 -0.4 -4.9 -0.1 -7.9 3.1 -3 3.3 -3.3 4.2 -3.9 11.9 -0.3 4.5 -0.3 11.4 0 15.1 0.5 5.3 0.3 7.1 -0.8 7.8 -2.1 1.3 -8.9 1.1 -9.5 -0.4z"/>
  <path d="M605.5 79.8 c-0.3 -0.7 -1.5 -4.2 -2.7 -7.8 -2.2 -6.3 -2.4 -6.5 -6.1 -6.8 -3.6 -0.3 -3.7 -0.4 -3.7 -4.3 0 -3.2 0.3 -3.9 2 -3.9 2.5 0 2.6 -2.2 0.4 -8.1 -2 -5.3 -3.3 -33.9 -1.6 -33.9 0.6 0 1.4 0.5 1.7 1 1.6 2.6 22.4 63.4 21.9 64.1 -0.8 1.4 -11.4 1.1 -11.9 -0.3z"/>
 </g>
 <g fill="#a80303">
  <path d="M460.3 81 c-7.9 -1.9 -9.3 -5.7 -9.3 -24.9 l0 -15 -3.7 -0.3 c-4.1 -0.3 -5 -1.9 -3.9 -6.4 0.5 -2 1.3 -2.4 4.1 -2.4 l3.5 0 0 -6.1 0 -6 5.3 0.3 5.2 0.3 0.3 5.7 0.3 5.7 5.7 0.3 5.7 0.3 0.3 4.3 0.3 4.2 -6 0 -6.1 0 0 13.8 c0 16.6 0.5 17.8 7.4 17.5 4.6 -0.1 4.6 -0.1 4.6 3.2 0 1.8 -0.6 3.7 -1.2 4.3 -1.9 1.4 -8.8 2.2 -12.5 1.2z"/>
  <path d="M492.5 81 c-6.2 -2.1 -9.5 -6.6 -9.5 -13 0 -9.7 6 -14.1 20.3 -14.8 l8.7 -0.4 0 -4.8 c0 -8.7 -7.5 -11.3 -19 -6.6 -6.5 2.6 -7.9 2.3 -8 -1.2 0 -5.2 7.7 -8.7 19.5 -8.7 9.4 0 14 2.1 16.7 7.5 1.5 3 1.8 6.4 1.8 22.8 l0 19.3 -4.2 -0.3 c-3.8 -0.3 -4.3 -0.6 -4.6 -3 l-0.3 -2.7 -4.2 3 c-4.7 3.3 -12.1 4.5 -17.2 2.9z m12.5 -7 c0.5 0 2.2 -1.2 3.9 -2.6 2.7 -2.2 3.1 -3.2 3.1 -7.6 l0 -5 -6.4 0.4 c-8.5 0.5 -11.6 2.6 -11.6 7.7 0 5 4.4 8.8 8.8 7.5 0.8 -0.2 1.7 -0.4 2.2 -0.4z"/>
  <path d="M634.7 81 c-2.1 -0.6 -5.1 -1.7 -6.7 -2.5 -2.7 -1.4 -3 -2 -3 -6.5 l0 -4.9 5.2 2.4 c13.1 6.1 23.8 3.2 23.8 -6.3 0 -4.5 -2.8 -7 -13.4 -12.2 -10.9 -5.3 -13.8 -8.8 -14.4 -17.1 -0.5 -7.1 0.8 -10.9 5.4 -14.9 3.9 -3.4 8.9 -5 16 -5 5.5 0 13.3 2.3 14.6 4.3 0.9 1.4 1.1 7.1 0.2 8 -0.3 0.3 -2.6 -0.3 -5.1 -1.4 -2.5 -1.1 -6.8 -1.9 -9.7 -1.9 -6.7 0 -9.6 2.4 -9.6 8 0 4.7 2.6 6.9 13.8 12 11.9 5.4 16.4 12.7 14.2 22.7 -1.4 6.2 -4.8 10.6 -10.3 13.2 -5.1 2.5 -15.4 3.5 -21 2.1z"/>
  <path d="M195.3 80.3 c-1 -0.3 -1.3 -6.1 -1.3 -23.8 0 -25.5 -0.2 -24.5 6 -24.5 6.2 0 6 -1 6 24.5 0 20.3 -0.2 23.4 -1.6 23.9 -1.8 0.7 -7.3 0.7 -9.1 -0.1z"/>
  <path d="M221.2 80.2 c-0.9 -0.7 -1.2 -8.4 -1 -35.3 l0.3 -34.4 5.5 0 5.5 0 0.3 34.4 c0.2 26.9 -0.1 34.6 -1 35.3 -0.7 0.4 -2.9 0.8 -4.8 0.8 -1.9 0 -4.1 -0.4 -4.8 -0.8z"/>
  <path d="M180.1 42.3 c-4.4 -0.6 -6.1 -2.4 -6.1 -6.6 0 -3.1 0.4 -3.6 3 -4.2 5.6 -1.2 7 0 7 6.1 0 3 -0.1 5.3 -0.2 5.2 -0.2 0 -1.8 -0.3 -3.7 -0.5z"/>
  <path d="M194.7 22.3 c-0.4 -0.3 -0.7 -2.6 -0.7 -4.9 0 -3.7 0.3 -4.4 2.4 -5 1.3 -0.3 3.8 -0.4 5.6 -0.2 4 0.4 5.7 3.8 4.1 8.1 -0.9 2.4 -1.6 2.7 -5.9 2.7 -2.7 0 -5.2 -0.3 -5.5 -0.7z"/>
 </g>
 <g fill="#880303">
  <path d="M253.9 79.7 c-6.2 -3.3 -9.1 -9.3 -9.7 -20.1 -0.8 -15 4 -24.8 13.5 -27.6 5.1 -1.6 10 -0.7 14.8 2.5 2 1.4 4.1 2.3 4.6 2 0.5 -0.4 0.9 -6.5 0.9 -13.6 l0 -13 5.3 0.3 5.2 0.3 0 35 0 35 -3.9 0.3 c-4.2 0.4 -5.6 -0.8 -5.6 -4.5 0 -3 -0.4 -2.9 -4.9 0.7 -6.7 5.4 -13.3 6.3 -20.2 2.7z m16 -8.2 c1.6 -0.8 4 -2.8 5.5 -4.5 2.3 -2.8 2.6 -4 2.6 -10.9 0 -7.4 -0.1 -7.8 -3.2 -10.8 -6.4 -6 -10 -6.7 -14.6 -2.8 -3.7 3.1 -5.7 9.8 -4.9 17 1.1 10.9 7.2 15.9 14.6 12z"/>
  <path d="M493.5 81.4 c-1.7 -0.4 -2 -1.1 -1.7 -5.4 0.4 -5.1 1.8 -6.4 4.1 -3.6 2.7 3.3 9.4 2.5 13.9 -1.6 1.7 -1.7 2.2 -3.3 2.2 -7 l0 -4.8 -5.3 0 c-3.1 0 -6.7 0.7 -8.8 1.8 -4.5 2.3 -5.9 1.8 -5.9 -1.9 0 -1.6 -0.6 -2.9 -1.2 -3 -4.1 -0.3 7.9 -2.8 14 -2.8 l7.2 -0.1 0 -4.8 c0 -3.6 -0.5 -5.4 -1.9 -6.6 -2.4 -2.2 -9.1 -3.2 -12.9 -1.8 -2.4 0.8 -3 0.7 -4 -0.9 -2.5 -4 -1.5 -5.7 4.2 -7 6.6 -1.4 15.1 -0.5 19.5 2.2 5.4 3.3 6.1 6.5 6.1 27.9 l0 19.1 -4.2 -0.3 c-3.8 -0.3 -4.3 -0.6 -4.6 -3 l-0.3 -2.7 -4.2 3 c-4.2 2.9 -11.4 4.4 -16.2 3.3z"/>
  <path d="M649.8 78.9 c-2.7 -1.5 -2.2 -5.4 1.2 -8.7 3.9 -4 4.1 -8.8 0.3 -13.2 -3.1 -3.7 -4.5 -12.6 -2.3 -14 1.9 -1.2 10.1 3.2 13.3 7 7.1 8.4 4.8 22.1 -4.7 27.9 -3.7 2.3 -5.3 2.5 -7.8 1z"/>
  <path d="M657.5 24.9 c-2.2 -0.9 -5.2 -1.8 -6.7 -1.8 -2.6 -0.1 -2.8 -0.4 -2.8 -4.6 0 -4.1 0.2 -4.5 2.4 -4.5 3.2 0 10.8 2.8 11.8 4.3 1 1.5 1 7.4 0.1 8 -0.5 0.2 -2.6 -0.4 -4.8 -1.4z"/>
 </g>
</svg>